<svg width="60" height="60" viewBox="0 0 60 60" fill="none" xmlns="http://www.w3.org/2000/svg">
<circle cx="30" cy="30" r="30" fill="url(#paint0_radial_10_6)"/>
<path d="M19 43H30H38.9561C40.0883 43 41 42.0821 41 40.9499C41 39.8177 40.0821 38.8998 38.9499 38.8998H36.875C34.5968 38.8998 32.75 37.053 32.75 34.7748V32.0662V25.2573C32.75 22.9791 34.5968 21.1323 36.875 21.1323H38.9499C40.0821 21.1323 41 20.2144 41 19.0822C41 17.95 40.0821 17.0321 38.9499 17.0321H32.75L21.0686 17.0048C19.9269 17.0022 19 17.9269 19 19.0686C19 20.2083 19.924 21.1323 21.0637 21.1323L23.125 21.1323C25.4032 21.1323 27.25 22.9791 27.25 25.2573V32.0662V34.7917C27.25 37.0633 25.4135 38.9074 23.142 38.9167C20.8572 38.9261 19 40.4492 19 42.7341V43Z" fill="url(#paint1_radial_10_6)"/>
<defs>
<radialGradient id="paint0_radial_10_6" cx="0" cy="0" r="1" gradientUnits="userSpaceOnUse" gradientTransform="translate(21.3462 24.2308) rotate(45) scale(48.1377 47.0679)">
<stop offset="0.459993" stop-color="#5186AD"/>
<stop offset="0.797597" stop-color="#2F5775"/>
<stop offset="0.936425" stop-color="#17364D"/>
</radialGradient>
<radialGradient id="paint1_radial_10_6" cx="0" cy="0" r="1" gradientUnits="userSpaceOnUse" gradientTransform="translate(37.9439 17) rotate(126.625) scale(34.0594 28.6965)">
<stop offset="0.702744" stop-color="white"/>
<stop offset="0.923958" stop-color="#D6D6D6"/>
</radialGradient>
</defs>
</svg>
